<svg id="svg" xmlns="http://www.w3.org/2000/svg" xmlns:xlink="http://www.w3.org/1999/xlink" width="400" height="379" viewBox="0, 0, 400,379"><g id="svgg"><path id="path0" d="M220.000 0.549 C 219.175 0.724,216.757 1.153,214.627 1.502 L 210.755 2.137 211.308 6.262 C 211.636 8.705,212.680 11.022,213.867 11.943 C 214.970 12.800,218.998 20.700,222.818 29.500 C 226.638 38.300,231.617 49.500,233.882 54.390 C 236.147 59.279,238.000 63.446,238.000 63.650 C 238.000 63.854,218.344 63.904,194.321 63.761 L 150.642 63.500 146.817 54.062 C 144.713 48.870,143.396 44.370,143.891 44.062 C 150.090 40.191,179.997 18.269,179.998 17.595 C 179.999 17.067,174.308 16.963,166.342 17.345 C 158.830 17.705,141.100 18.000,126.942 18.000 L 101.199 18.000 99.972 23.117 C 97.515 33.361,100.873 44.940,107.462 48.945 C 113.493 52.611,127.669 54.097,133.089 51.632 C 134.365 51.052,135.336 52.609,138.011 59.529 L 141.344 68.149 138.588 73.824 C 137.073 76.946,134.299 82.266,132.425 85.647 L 129.017 91.794 119.759 88.760 C 39.079 62.317,-31.874 155.605,14.908 226.617 C 52.189 283.206,131.767 284.204,175.563 228.631 L 178.613 224.762 182.752 226.873 C 185.029 228.035,187.106 228.637,187.370 228.211 C 188.366 226.599,189.287 189.000,188.330 189.000 C 187.440 189.000,164.427 202.183,155.676 207.705 C 151.414 210.395,151.718 211.812,157.033 214.014 C 161.082 215.691,160.897 216.237,153.750 223.701 C 119.939 259.013,72.117 259.694,38.848 225.337 C -9.482 175.426,36.716 93.359,106.311 105.495 C 115.599 107.115,120.000 108.696,120.000 110.413 C 120.000 111.014,113.025 125.867,104.500 143.420 C 95.975 160.972,89.000 175.625,89.000 175.982 C 89.000 176.732,95.574 180.000,97.083 180.000 C 97.642 180.000,105.259 165.350,114.012 147.445 C 132.232 110.171,129.389 112.755,140.617 123.259 C 146.055 128.345,181.880 171.051,230.162 230.000 C 253.672 258.705,275.887 270.175,308.000 270.190 C 389.066 270.229,430.407 172.412,374.411 113.053 C 349.667 86.823,311.641 78.229,275.150 90.619 C 269.457 92.552,264.626 93.959,264.413 93.746 C 261.699 91.032,225.291 11.376,226.302 10.364 C 230.206 6.461,272.236 12.055,277.722 17.208 C 283.972 23.080,276.327 32.191,269.593 26.895 L 266.917 24.789 262.958 27.409 C 257.454 31.052,259.577 35.055,268.591 38.030 C 286.930 44.082,298.369 18.068,282.118 7.269 C 274.011 1.882,234.103 -2.435,220.000 0.549 M249.477 86.954 L 255.968 99.908 250.086 104.434 C 242.619 110.180,236.180 117.312,221.406 136.204 L 209.594 151.309 214.547 155.794 C 224.956 165.221,222.628 166.218,239.424 145.140 C 251.934 129.442,262.660 118.000,264.867 118.000 C 265.409 118.000,267.315 120.588,269.102 123.750 C 283.006 148.354,301.131 171.787,312.996 180.497 C 319.024 184.922,319.161 184.907,321.777 179.522 L 323.952 175.045 321.726 173.860 C 312.153 168.766,297.905 151.340,282.386 125.746 C 273.646 111.332,273.720 111.797,279.753 109.202 C 320.650 91.608,370.161 118.441,379.408 163.210 C 390.672 217.742,336.407 265.404,283.729 247.247 C 264.424 240.593,264.384 240.553,211.557 176.582 C 155.304 108.462,154.980 108.100,141.558 98.482 L 138.742 96.465 142.700 88.598 L 146.658 80.731 149.670 88.116 C 152.588 95.271,152.784 95.495,155.966 95.339 C 161.376 95.074,162.627 93.018,160.536 87.825 C 159.578 85.446,157.948 81.362,156.912 78.750 L 155.029 74.000 199.007 74.000 L 242.986 74.000 249.477 86.954 M81.718 297.092 C 73.495 299.028,63.204 307.229,59.875 314.500 C 56.876 321.051,56.804 321.000,69.000 321.000 C 75.986 321.000,80.000 320.618,80.000 319.955 C 80.000 316.004,84.824 314.000,94.332 314.000 C 106.112 314.000,106.414 314.278,104.728 323.590 L 103.477 330.500 90.622 330.781 L 77.766 331.062 78.428 327.531 L 79.091 324.000 68.064 324.000 C 57.453 324.000,57.018 324.085,56.511 326.250 C 54.604 334.385,48.000 366.485,48.000 367.617 C 48.000 368.709,50.269 369.000,58.786 369.000 L 69.571 369.000 71.428 359.750 C 72.449 354.663,73.493 349.938,73.749 349.250 C 74.332 347.683,97.548 347.459,98.507 349.011 C 99.027 349.853,97.144 360.722,95.347 367.250 C 94.909 368.840,95.872 369.000,105.865 369.000 C 115.481 369.000,116.929 368.780,117.373 367.250 C 121.610 352.634,128.394 314.914,127.573 310.536 C 125.337 298.621,103.017 292.076,81.718 297.092 M136.540 297.186 C 134.148 304.229,131.902 319.324,133.130 320.102 C 136.195 322.043,154.000 321.173,154.000 319.082 C 154.000 314.281,154.638 314.000,165.557 314.000 C 176.654 314.000,179.080 315.113,176.892 319.201 C 174.887 322.948,171.971 323.488,151.023 324.000 L 130.545 324.500 125.929 346.500 L 121.312 368.500 131.825 368.786 C 143.766 369.110,143.277 369.415,144.971 360.605 C 145.616 357.247,146.814 351.505,147.631 347.845 L 149.117 341.189 162.809 340.835 C 175.138 340.517,177.069 340.216,182.220 337.810 C 201.366 328.867,205.578 307.751,189.961 299.000 C 184.608 296.000,137.487 294.399,136.540 297.186 M207.678 296.750 C 207.436 297.163,206.216 302.381,204.968 308.348 C 202.235 321.409,201.880 320.964,215.017 320.985 L 224.533 321.000 226.768 310.250 C 230.008 294.660,230.780 296.000,218.559 296.000 C 212.816 296.000,207.920 296.337,207.678 296.750 M255.537 297.250 C 255.317 297.938,253.056 308.339,250.514 320.365 C 243.777 352.236,243.866 352.089,231.185 351.900 C 217.930 351.703,217.666 351.243,221.327 334.719 L 223.716 323.937 212.630 324.219 L 201.545 324.500 199.746 332.000 C 192.752 361.163,198.554 369.000,227.142 369.000 C 244.735 369.000,249.975 367.525,257.993 360.316 C 265.411 353.647,265.162 354.437,277.542 298.250 C 278.130 295.581,256.388 294.593,255.537 297.250 M297.500 298.065 C 287.342 302.050,278.882 310.341,277.397 317.766 L 276.750 321.000 287.396 321.000 C 297.651 321.000,298.083 320.912,299.132 318.610 C 300.796 314.958,304.171 313.999,315.297 314.015 C 327.665 314.034,328.506 314.435,327.632 319.898 L 326.976 324.000 337.872 324.000 C 350.168 324.000,349.958 324.152,349.986 315.218 C 350.013 306.952,345.248 300.410,337.110 297.539 C 330.240 295.115,304.138 295.462,297.500 298.065 M277.180 327.178 C 279.484 333.975,283.602 337.817,290.994 340.066 C 292.552 340.540,289.671 340.861,283.372 340.914 C 271.007 341.019,270.623 341.329,271.156 350.762 C 271.971 365.178,278.550 368.976,302.739 368.990 C 328.229 369.006,341.258 361.798,343.567 346.405 C 346.233 328.623,338.875 324.613,302.777 324.178 L 276.054 323.855 277.180 327.178 M320.250 343.166 C 326.562 346.427,319.656 351.257,307.875 351.820 C 294.606 352.455,290.777 349.958,293.627 342.529 C 294.319 340.727,316.560 341.260,320.250 343.166 " stroke="none" fill="#000000" fill-rule="evenodd"></path></g></svg>