<svg id="svg" xmlns="http://www.w3.org/2000/svg" xmlns:xlink="http://www.w3.org/1999/xlink" width="400" height="269.53846153846155" viewBox="0, 0, 400,269.53846153846155"><g id="svgg"><path id="path0" d="M230.359 0.251 C 222.483 0.865,211.833 2.184,211.422 2.595 C 211.352 2.665,211.568 4.279,211.903 6.182 C 212.238 8.084,212.512 9.701,212.512 9.775 C 212.513 9.849,213.269 9.854,214.194 9.788 L 215.875 9.666 221.515 22.782 C 227.540 36.795,232.265 47.399,237.290 58.184 C 239.006 61.868,240.410 64.961,240.410 65.058 C 240.410 65.155,219.976 65.187,195.002 65.130 L 149.593 65.026 145.375 54.769 C 143.055 49.128,141.153 44.328,141.150 44.103 C 141.147 43.877,149.233 37.969,159.119 30.974 L 177.093 18.256 172.957 18.120 C 166.474 17.907,101.572 18.888,101.252 19.204 C 99.695 20.741,98.771 32.246,99.862 36.513 C 101.782 44.022,106.832 48.893,114.488 50.625 C 121.433 52.195,129.815 51.770,132.696 49.701 L 134.375 48.495 138.294 58.054 L 142.214 67.614 135.762 80.810 C 128.239 96.197,129.286 94.613,127.307 93.604 C 119.266 89.501,103.724 86.430,91.077 86.444 C 33.559 86.509,-9.507 139.146,1.695 195.692 C 8.586 230.480,40.476 260.604,78.359 268.114 C 110.796 274.544,149.531 258.478,173.066 228.833 L 176.883 224.025 181.818 226.499 C 184.533 227.860,186.839 228.888,186.943 228.783 C 187.217 228.509,188.765 194.285,188.628 191.537 L 188.513 189.228 170.167 199.947 C 160.076 205.843,151.815 210.804,151.808 210.971 C 151.801 211.139,154.195 212.479,157.128 213.949 C 160.062 215.419,162.462 216.727,162.462 216.856 C 162.462 218.500,150.095 230.979,143.879 235.607 C 109.179 261.443,69.464 259.527,38.802 230.537 C -15.802 178.910,32.813 88.539,107.077 103.618 C 112.317 104.682,118.295 106.498,120.817 107.792 L 122.227 108.515 105.626 142.486 C 96.496 161.169,89.026 176.536,89.026 176.634 C 89.026 177.063,95.724 180.129,95.999 179.825 C 96.167 179.639,103.667 164.395,112.664 145.949 C 121.662 127.503,129.223 112.410,129.467 112.410 C 131.290 112.410,142.485 121.786,147.619 127.613 C 152.382 133.018,232.611 229.939,235.607 233.906 C 264.121 271.670,318.977 280.815,358.770 254.438 C 414.720 217.352,413.299 134.873,356.103 99.586 C 330.251 83.637,294.768 82.025,267.915 95.581 C 266.496 96.297,265.185 96.731,265.002 96.544 C 262.933 94.434,240.531 47.120,229.489 21.540 L 224.000 8.825 225.128 8.496 C 227.255 7.877,245.670 7.658,251.692 8.180 C 270.159 9.781,279.879 13.240,281.411 18.758 C 283.863 27.588,275.087 33.139,268.225 27.099 L 266.367 25.464 263.570 27.399 C 260.187 29.739,260.125 29.889,261.786 31.780 C 272.686 44.195,292.032 34.928,289.265 18.617 C 287.490 8.155,278.888 3.520,256.205 0.803 C 252.443 0.353,234.084 -0.040,230.359 0.251 M251.327 86.985 L 258.346 100.933 255.635 102.844 C 246.125 109.545,238.536 117.634,223.198 137.417 C 216.646 145.868,211.423 152.918,211.592 153.084 C 215.067 156.497,223.467 162.305,224.063 161.707 C 224.436 161.332,229.304 155.118,234.880 147.897 C 240.456 140.677,245.418 134.400,245.908 133.949 C 246.397 133.497,247.518 132.205,248.398 131.077 C 252.888 125.322,265.258 113.972,266.003 114.925 C 266.068 115.008,267.479 117.477,269.138 120.410 C 287.425 152.747,306.053 176.108,318.660 182.512 L 320.396 183.394 322.075 180.056 C 322.998 178.220,323.601 176.586,323.415 176.425 C 323.229 176.265,321.699 175.232,320.015 174.131 C 308.691 166.725,293.618 147.103,276.476 117.452 C 272.231 110.110,272.398 110.716,274.359 109.763 C 326.269 84.541,386.189 122.886,384.275 180.103 C 382.427 235.335,324.591 270.438,275.077 246.378 C 265.561 241.754,255.568 233.958,250.345 227.083 C 248.298 224.388,164.259 122.719,163.527 122.051 C 163.279 121.826,161.743 120.054,160.112 118.115 C 154.652 111.621,147.847 105.640,140.205 100.618 C 138.005 99.173,136.205 97.940,136.205 97.880 C 136.205 97.542,146.131 77.484,146.240 77.602 C 146.312 77.680,147.984 81.713,149.956 86.564 C 154.263 97.162,153.387 96.200,157.303 94.621 C 161.431 92.957,161.464 94.000,156.931 82.933 C 154.783 77.690,153.026 73.316,153.026 73.213 C 153.026 73.110,173.564 73.028,198.667 73.031 L 244.308 73.037 251.327 86.985 " stroke="none" fill="#000000" fill-rule="evenodd"></path></g></svg>