<svg id="svg" version="1.1" xmlns="http://www.w3.org/2000/svg" xmlns:xlink="http://www.w3.org/1999/xlink" width="400" height="128" viewBox="0, 0, 400,128"><g id="svgg"><path id="path0" d="M48.000 22.433 C 33.364 26.512,17.000 41.695,17.000 51.196 C 17.000 53.994,44.562 53.957,45.450 51.158 C 47.090 45.991,50.516 44.548,62.090 44.152 C 80.668 43.516,81.141 44.194,76.473 64.750 C 75.967 66.975,75.775 67.000,58.920 67.000 L 41.877 67.000 42.552 62.500 L 43.227 58.000 29.114 58.000 C 21.351 58.000,14.999 58.337,14.999 58.750 C 14.998 59.163,12.298 72.032,8.999 87.348 C 5.699 102.664,3.000 115.602,3.000 116.098 C 3.000 118.439,30.935 117.117,31.480 114.750 C 31.765 113.513,33.033 107.550,34.298 101.500 L 36.597 90.500 53.883 90.226 L 71.169 89.952 70.438 93.226 C 70.036 95.027,68.705 101.112,67.481 106.750 L 65.255 117.000 79.438 117.000 L 93.621 117.000 100.810 83.692 C 110.091 40.697,109.839 34.602,98.458 26.840 C 90.207 21.212,61.406 18.697,48.000 22.433 M119.478 23.250 C 117.410 31.553,113.268 51.565,113.554 51.868 C 113.746 52.071,120.112 52.296,127.701 52.368 L 141.500 52.500 142.407 47.807 L 143.314 43.114 155.407 43.620 C 172.987 44.355,175.325 45.385,173.043 51.387 C 171.212 56.203,168.541 56.678,139.616 57.329 C 124.830 57.662,112.518 58.149,112.256 58.411 C 111.811 58.856,108.823 72.148,102.064 103.750 L 99.230 117.000 113.462 117.000 L 127.694 117.000 131.578 98.576 L 135.463 80.152 153.481 79.821 L 171.500 79.490 179.250 75.810 C 203.187 64.444,209.735 38.345,191.677 26.277 C 184.243 21.308,181.884 21.012,149.769 21.006 L 120.038 21.000 119.478 23.250 M210.175 35.795 C 208.429 43.932,207.000 51.132,207.000 51.795 C 207.000 54.411,234.874 53.388,235.469 50.750 C 235.747 49.513,237.101 43.325,238.478 37.000 C 239.855 30.675,241.219 24.488,241.509 23.250 L 242.038 21.000 227.694 21.000 L 213.351 21.000 210.175 35.795 M276.703 21.750 C 276.475 22.163,273.197 37.118,269.420 54.985 C 260.878 95.383,262.089 93.342,246.379 93.847 C 226.344 94.491,226.201 94.306,230.526 73.333 L 233.653 58.167 231.139 57.686 C 229.757 57.422,223.367 57.448,216.940 57.744 L 205.255 58.283 202.477 71.391 C 197.367 95.503,197.819 100.752,205.678 108.611 C 212.481 115.414,216.133 116.369,237.050 116.814 C 265.096 117.410,279.857 110.929,288.374 94.279 C 289.662 91.761,304.985 24.906,304.997 21.750 C 304.999 21.337,298.727 21.000,291.059 21.000 C 283.391 21.000,276.931 21.337,276.703 21.750 M335.105 22.583 C 320.577 26.489,304.000 41.986,304.000 51.660 C 304.000 54.583,331.462 53.475,332.819 50.498 C 335.132 45.422,339.337 44.008,352.125 44.004 C 370.530 43.998,372.697 44.978,370.992 52.537 C 369.858 57.565,368.853 57.171,384.315 57.761 C 399.794 58.352,398.937 58.866,399.720 48.514 C 400.688 35.726,394.027 26.164,381.576 22.467 C 374.784 20.450,342.739 20.530,335.105 22.583 M304.000 59.501 C 304.000 64.060,312.052 73.965,318.383 77.195 C 322.725 79.411,335.550 80.878,351.250 80.956 C 363.911 81.019,366.997 84.203,360.600 90.600 L 357.200 94.000 343.055 94.000 C 328.294 94.000,323.042 92.253,324.427 87.806 C 324.650 87.087,325.104 85.263,325.436 83.750 L 326.038 81.000 312.078 81.000 C 296.252 81.000,297.091 80.524,296.301 89.950 C 295.322 101.625,300.378 109.338,312.500 114.665 C 317.597 116.905,350.560 117.856,359.411 116.019 C 391.451 109.367,403.674 74.422,378.590 61.186 L 373.500 58.500 338.750 58.202 C 307.457 57.933,304.000 58.062,304.000 59.501 " stroke="none" fill="#000000" fill-rule="evenodd"></path></g></svg>