<svg width="0" height="0" class="hidden">
  <symbol xmlns="http://www.w3.org/2000/svg" viewBox="0 0 0 0 400 379" id="imagotipo">
    <path d="M220 .549c-.825.175-3.243.604-5.373.953l-3.872.635.553 4.125c.328 2.443 1.372 4.76 2.559 5.681 1.103.857 5.131 8.757 8.951 17.557 3.82 8.8 8.799 20 11.064 24.89 2.265 4.889 4.118 9.056 4.118 9.26 0 .204-19.656.254-43.679.111l-43.679-.261-3.825-9.438c-2.104-5.192-3.421-9.692-2.926-10 6.199-3.871 36.106-25.793 36.107-26.467.001-.528-5.69-.632-13.656-.25-7.512.36-25.242.655-39.4.655h-25.743l-1.227 5.117c-2.457 10.244.901 21.823 7.49 25.828 6.031 3.666 20.207 5.152 25.627 2.687 1.276-.58 2.247.977 4.922 7.897l3.333 8.62-2.756 5.675c-1.515 3.122-4.289 8.442-6.163 11.823l-3.408 6.147-9.258-3.034C39.079 62.317-31.874 155.605 14.908 226.617c37.281 56.589 116.859 57.587 160.655 2.014l3.05-3.869 4.139 2.111c2.277 1.162 4.354 1.764 4.618 1.338.996-1.612 1.917-39.211.96-39.211-.89 0-23.903 13.183-32.654 18.705-4.262 2.69-3.958 4.107 1.357 6.309 4.049 1.677 3.864 2.223-3.283 9.687-33.811 35.312-81.633 35.993-114.902 1.636-48.33-49.911-2.132-131.978 67.463-119.842 9.288 1.62 13.689 3.201 13.689 4.918 0 .601-6.975 15.454-15.5 33.007-8.525 17.552-15.5 32.205-15.5 32.562 0 .75 6.574 4.018 8.083 4.018.559 0 8.176-14.65 16.929-32.555 18.22-37.274 15.377-34.69 26.605-24.186 5.438 5.086 41.263 47.792 89.545 106.741 23.51 28.705 45.725 40.175 77.838 40.19 81.066.039 122.407-97.778 66.411-157.137-24.744-26.23-62.77-34.824-99.261-22.434-5.693 1.933-10.524 3.34-10.737 3.127-2.714-2.714-39.122-82.37-38.111-83.382 3.904-3.903 45.934 1.691 51.42 6.844 6.25 5.872-1.395 14.983-8.129 9.687l-2.676-2.106-3.959 2.62c-5.504 3.643-3.381 7.646 5.633 10.621 18.339 6.052 29.778-19.962 13.527-30.761-8.107-5.387-48.015-9.704-62.118-6.72m29.477 86.405l6.491 12.954-5.882 4.526c-7.467 5.746-13.906 12.878-28.68 31.77l-11.812 15.105 4.953 4.485c10.409 9.427 8.081 10.424 24.877-10.654 12.51-15.698 23.236-27.14 25.443-27.14.542 0 2.448 2.588 4.235 5.75 13.904 24.604 32.029 48.037 43.894 56.747 6.028 4.425 6.165 4.41 8.781-.975l2.175-4.477-2.226-1.185c-9.573-5.094-23.821-22.52-39.34-48.114-8.74-14.414-8.666-13.949-2.633-16.544 40.897-17.594 90.408 9.239 99.655 54.008 11.264 54.532-43.001 102.194-95.679 84.037-19.305-6.654-19.345-6.694-72.172-70.665-56.253-68.12-56.577-68.482-69.999-78.1l-2.816-2.017 3.958-7.867 3.958-7.867 3.012 7.385c2.918 7.155 3.114 7.379 6.296 7.223 5.41-.265 6.661-2.321 4.57-7.514-.958-2.379-2.588-6.463-3.624-9.075L155.029 74h87.957l6.491 12.954M81.718 297.092c-8.223 1.936-18.514 10.137-21.843 17.408-2.999 6.551-3.071 6.5 9.125 6.5 6.986 0 11-.382 11-1.045 0-3.951 4.824-5.955 14.332-5.955 11.78 0 12.082.278 10.396 9.59l-1.251 6.91-12.855.281-12.856.281.662-3.531.663-3.531H68.064c-10.611 0-11.046.085-11.553 2.25C54.604 334.385 48 366.485 48 367.617c0 1.092 2.269 1.383 10.786 1.383h10.785l1.857-9.25c1.021-5.087 2.065-9.812 2.321-10.5.583-1.567 23.799-1.791 24.758-.239.52.842-1.363 11.711-3.16 18.239-.438 1.59.525 1.75 10.518 1.75 9.616 0 11.064-.22 11.508-1.75 4.237-14.616 11.021-52.336 10.2-56.714-2.236-11.915-24.556-18.46-45.855-13.444m54.822.094c-2.392 7.043-4.638 22.138-3.41 22.916 3.065 1.941 20.87 1.071 20.87-1.02 0-4.801.638-5.082 11.557-5.082 11.097 0 13.523 1.113 11.335 5.201-2.005 3.747-4.921 4.287-25.869 4.799l-20.478.5-4.616 22-4.617 22 10.513.286c11.941.324 11.452.629 13.146-8.181.645-3.358 1.843-9.1 2.66-12.76l1.486-6.656 13.692-.354c12.329-.318 14.26-.619 19.411-3.025 19.146-8.943 23.358-30.059 7.741-38.81-5.353-3-52.474-4.601-53.421-1.814m71.138-.436c-.242.413-1.462 5.631-2.71 11.598-2.733 13.061-3.088 12.616 10.049 12.637l9.516.015 2.235-10.75c3.24-15.59 4.012-14.25-8.209-14.25-5.743 0-10.639.337-10.881.75m47.859.5c-.22.688-2.481 11.089-5.023 23.115-6.737 31.871-6.648 31.724-19.329 31.535-13.255-.197-13.519-.657-9.858-17.181l2.389-10.782-11.086.282-11.085.281-1.799 7.5c-6.994 29.163-1.192 37 27.396 37 17.593 0 22.833-1.475 30.851-8.684 7.418-6.669 7.169-5.879 19.549-62.066.588-2.669-21.154-3.657-22.005-1m41.963.815c-10.158 3.985-18.618 12.276-20.103 19.701L276.75 321h10.646c10.255 0 10.687-.088 11.736-2.39 1.664-3.652 5.039-4.611 16.165-4.595 12.368.019 13.209.42 12.335 5.883l-.656 4.102h10.896c12.296 0 12.086.152 12.114-8.782.027-8.266-4.738-14.808-12.876-17.679-6.87-2.424-32.972-2.077-39.61.526m-20.32 29.113c2.304 6.797 6.422 10.639 13.814 12.888 1.558.474-1.323.795-7.622.848-12.365.105-12.749.415-12.216 9.848.815 14.416 7.394 18.214 31.583 18.228 25.49.016 38.519-7.192 40.828-22.585 2.666-17.782-4.692-21.792-40.79-22.227l-26.723-.323 1.126 3.323m43.07 15.988c6.312 3.261-.594 8.091-12.375 8.654-13.269.635-17.098-1.862-14.248-9.291.692-1.802 22.933-1.269 26.623.637"
      fill-rule="evenodd"></path>
  </symbol>
  <symbol xmlns="http://www.w3.org/2000/svg" viewBox="0 0 0 0 400 269.538" id="isotipo">
    <path d="M230.359.251c-7.876.614-18.526 1.933-18.937 2.344-.07.07.146 1.684.481 3.587.335 1.902.609 3.519.609 3.593.001.074.757.079 1.682.013l1.681-.122 5.64 13.116c6.025 14.013 10.75 24.617 15.775 35.402 1.716 3.684 3.12 6.777 3.12 6.874 0 .097-20.434.129-45.408.072l-45.409-.104-4.218-10.257c-2.32-5.641-4.222-10.441-4.225-10.666-.003-.226 8.083-6.134 17.969-13.129l17.974-12.718-4.136-.136c-6.483-.213-71.385.768-71.705 1.084-1.557 1.537-2.481 13.042-1.39 17.309 1.92 7.509 6.97 12.38 14.626 14.112 6.945 1.57 15.327 1.145 18.208-.924l1.679-1.206 3.919 9.559 3.92 9.56-6.452 13.196c-7.523 15.387-6.476 13.803-8.455 12.794-8.041-4.103-23.583-7.174-36.23-7.16-57.518.065-100.584 52.702-89.382 109.248 6.891 34.788 38.781 64.912 76.664 72.422 32.437 6.43 71.172-9.636 94.707-39.281l3.817-4.808 4.935 2.474c2.715 1.361 5.021 2.389 5.125 2.284.274-.274 1.822-34.498 1.685-37.246l-.115-2.309-18.346 10.719c-10.091 5.896-18.352 10.857-18.359 11.024-.007.168 2.387 1.508 5.32 2.978 2.934 1.47 5.334 2.778 5.334 2.907 0 1.644-12.367 14.123-18.583 18.751-34.7 25.836-74.415 23.92-105.077-5.07-54.604-51.627-5.989-141.998 68.275-126.919 5.24 1.064 11.218 2.88 13.74 4.174l1.41.723-16.601 33.971c-9.13 18.683-16.6 34.05-16.6 34.148 0 .429 6.698 3.495 6.973 3.191.168-.186 7.668-15.43 16.665-33.876 8.998-18.446 16.559-33.539 16.803-33.539 1.823 0 13.018 9.376 18.152 15.203 4.763 5.405 84.992 102.326 87.988 106.293 28.514 37.764 83.37 46.909 123.163 20.532 55.95-37.086 54.529-119.565-2.667-154.852-25.852-15.949-61.335-17.561-88.188-4.005-1.419.716-2.73 1.15-2.913.963-2.069-2.11-24.471-49.424-35.513-75.004L224 8.825l1.128-.329c2.127-.619 20.542-.838 26.564-.316 18.467 1.601 28.187 5.06 29.719 10.578 2.452 8.83-6.324 14.381-13.186 8.341l-1.858-1.635-2.797 1.935c-3.383 2.34-3.445 2.49-1.784 4.381 10.9 12.415 30.246 3.148 27.479-13.163C287.49 8.155 278.888 3.52 256.205.803c-3.762-.45-22.121-.843-25.846-.552m20.968 86.734l7.019 13.948-2.711 1.911c-9.51 6.701-17.099 14.79-32.437 34.573-6.552 8.451-11.775 15.501-11.606 15.667 3.475 3.413 11.875 9.221 12.471 8.623.373-.375 5.241-6.589 10.817-13.81 5.576-7.22 10.538-13.497 11.028-13.948.489-.452 1.61-1.744 2.49-2.872 4.49-5.755 16.86-17.105 17.605-16.152.065.083 1.476 2.552 3.135 5.485 18.287 32.337 36.915 55.698 49.522 62.102l1.736.882 1.679-3.338c.923-1.836 1.526-3.47 1.34-3.631-.186-.16-1.716-1.193-3.4-2.294-11.324-7.406-26.397-27.028-43.539-56.679-4.245-7.342-4.078-6.736-2.117-7.689 51.91-25.222 111.83 13.123 109.916 70.34-1.848 55.232-59.684 90.335-109.198 66.275-9.516-4.624-19.509-12.42-24.732-19.295-2.047-2.695-86.086-104.364-86.818-105.032-.248-.225-1.784-1.997-3.415-3.936-5.46-6.494-12.265-12.475-19.907-17.497-2.2-1.445-4-2.678-4-2.738 0-.338 9.926-20.396 10.035-20.278.072.078 1.744 4.111 3.716 8.962 4.307 10.598 3.431 9.636 7.347 8.057 4.128-1.664 4.161-.621-.372-11.688-2.148-5.243-3.905-9.617-3.905-9.72 0-.103 20.538-.185 45.641-.182l45.641.006 7.019 13.948"
      fill-rule="evenodd"></path>
  </symbol>
  <symbol xmlns="http://www.w3.org/2000/svg" viewBox="0 0 0 0 400 128" id="logotipo">
    <path d="M48 22.433c-14.636 4.079-31 19.262-31 28.763 0 2.798 27.562 2.761 28.45-.038 1.64-5.167 5.066-6.61 16.64-7.006 18.578-.636 19.051.042 14.383 20.598-.506 2.225-.698 2.25-17.553 2.25H41.877l.675-4.5.675-4.5H29.114c-7.763 0-14.115.337-14.115.75-.001.413-2.701 13.282-6 28.598C5.699 102.664 3 115.602 3 116.098c0 2.341 27.935 1.019 28.48-1.348.285-1.237 1.553-7.2 2.818-13.25l2.299-11 17.286-.274 17.286-.274-.731 3.274c-.402 1.801-1.733 7.886-2.957 13.524L65.255 117h28.366l7.189-33.308c9.281-42.995 9.029-49.09-2.352-56.852-8.251-5.628-37.052-8.143-50.458-4.407m71.478.817c-2.068 8.303-6.21 28.315-5.924 28.618.192.203 6.558.428 14.147.5l13.799.132.907-4.693.907-4.693 12.093.506c17.58.735 19.918 1.765 17.636 7.767-1.831 4.816-4.502 5.291-33.427 5.942-14.786.333-27.098.82-27.36 1.082-.445.445-3.433 13.737-10.192 45.339L99.23 117h28.464l3.884-18.424 3.885-18.424 18.018-.331 18.019-.331 7.75-3.68c23.937-11.366 30.485-37.465 12.427-49.533-7.434-4.969-9.793-5.265-41.908-5.271L120.038 21l-.56 2.25m90.697 12.545c-1.746 8.137-3.175 15.337-3.175 16 0 2.616 27.874 1.593 28.469-1.045A4321.58 4321.58 0 0 0 238.478 37c1.377-6.325 2.741-12.512 3.031-13.75l.529-2.25h-28.687l-3.176 14.795m66.528-14.045c-.228.413-3.506 15.368-7.283 33.235-8.542 40.398-7.331 38.357-23.041 38.862-20.035.644-20.178.459-15.853-20.514l3.127-15.166-2.514-.481c-1.382-.264-7.772-.238-14.199.058l-11.685.539-2.778 13.108c-5.11 24.112-4.658 29.361 3.201 37.22 6.803 6.803 10.455 7.758 31.372 8.203 28.046.596 42.807-5.885 51.324-22.535 1.288-2.518 16.611-69.373 16.623-72.529.002-.413-6.27-.75-13.938-.75-7.668 0-14.128.337-14.356.75m58.402.833C320.577 26.489 304 41.986 304 51.66c0 2.923 27.462 1.815 28.819-1.162 2.313-5.076 6.518-6.49 19.306-6.494 18.405-.006 20.572.974 18.867 8.533-1.134 5.028-2.139 4.634 13.323 5.224 15.479.591 14.622 1.105 15.405-9.247.968-12.788-5.693-22.35-18.144-26.047-6.792-2.017-38.837-1.937-46.471.116M304 59.501c0 4.559 8.052 14.464 14.383 17.694 4.342 2.216 17.167 3.683 32.867 3.761 12.661.063 15.747 3.247 9.35 9.644l-3.4 3.4h-14.145c-14.761 0-20.013-1.747-18.628-6.194.223-.719.677-2.543 1.009-4.056l.602-2.75h-13.96c-15.826 0-14.987-.476-15.777 8.95-.979 11.675 4.077 19.388 16.199 24.715 5.097 2.24 38.06 3.191 46.911 1.354 32.04-6.652 44.263-41.597 19.179-54.833L373.5 58.5l-34.75-.298c-31.293-.269-34.75-.14-34.75 1.299"
      fill-rule="evenodd"></path>
  </symbol>
</svg>